HIERARCHY
ROOT joint_0
{
	OFFSET 0.000000 0.000000 0.000000
	CHANNELS 6 Xposition Yposition Zposition Zrotation Yrotation Xrotation 
	JOINT joint_1
	{
		OFFSET 1.363060 -1.794630 0.839290
		CHANNELS 3 Zrotation Yrotation Xrotation
		JOINT joint_2
		{
			OFFSET 2.448110 -6.726130 0.000000
			CHANNELS 3 Zrotation Yrotation Xrotation
			JOINT joint_3
			{
				OFFSET 2.562200 -7.039590 0.000000
				CHANNELS 3 Zrotation Yrotation Xrotation
				JOINT joint_4
				{
					OFFSET 0.157640 -0.433110 2.322550
					CHANNELS 3 Zrotation Yrotation Xrotation
					End Site
					{
						OFFSET 0.000000 0.000000 0.000000
					}
				}
			}
		}
	}
	JOINT joint_5
	{
		OFFSET -1.305520 -1.794630 0.839290
		CHANNELS 3 Zrotation Yrotation Xrotation
		JOINT joint_6
		{
			OFFSET -2.542530 -6.985550 0.000000
			CHANNELS 3 Zrotation Yrotation Xrotation
			JOINT joint_7
			{
				OFFSET -2.568260 -7.056230 0.000000
				CHANNELS 3 Zrotation Yrotation Xrotation
				JOINT joint_8
				{
					OFFSET -0.164730 -0.452590 2.363150
					CHANNELS 3 Zrotation Yrotation Xrotation
					End Site
					{
						OFFSET 0.000000 0.000000 0.000000
					}
				}
			}
		}
	}
	JOINT joint_9
	{
		OFFSET 0.028270 2.035590 -0.193380
		CHANNELS 3 Zrotation Yrotation Xrotation
		JOINT joint_10
		{
			OFFSET 0.056720 4.548850 -0.042750
			CHANNELS 3 Zrotation Yrotation Xrotation
			JOINT joint_11
			{
				OFFSET -0.054170 1.746240 0.172020
				CHANNELS 3 Zrotation Yrotation Xrotation
				JOINT joint_12
				{
					OFFSET 0.104070 1.761360 -0.123970
					CHANNELS 3 Zrotation Yrotation Xrotation
					End Site
					{
						OFFSET 0.000000 0.000000 0.000000
					}
				}
			}
			JOINT joint_13
			{
				OFFSET 3.362410 1.200890 -0.311210
				CHANNELS 3 Zrotation Yrotation Xrotation
				JOINT joint_14
				{
					OFFSET 5.783000 0.000000 0.000000
					CHANNELS 3 Zrotation Yrotation Xrotation
					JOINT joint_15
					{
						OFFSET 6.683559 0.000000 0.000000
						CHANNELS 3 Zrotation Yrotation Xrotation
						JOINT joint_16
						{
							OFFSET 0.000000 0.000000 0.000000
							CHANNELS 3 Zrotation Yrotation Xrotation
							End Site
							{
								OFFSET 0.000000 0.000000 0.000000
							}
						}
					}
				}
			}
			JOINT joint_17
			{
				OFFSET -2.136613 1.374050 -0.404650
				CHANNELS 3 Zrotation Yrotation Xrotation
				JOINT joint_18
				{
					OFFSET -0.741900 0.000000 0.000000
					CHANNELS 3 Zrotation Yrotation Xrotation
					JOINT joint_19
					{
						OFFSET -0.744170 0.000000 0.000000
						CHANNELS 3 Zrotation Yrotation Xrotation
						JOINT joint_20
						{
							OFFSET 0.000000 0.000000 0.000000
							CHANNELS 3 Zrotation Yrotation Xrotation
							End Site
							{
								OFFSET 0.000000 0.000000 0.000000
							}
						}
					}
				}
			}
		}
	}
}
MOTION
Frames: 12
Frame Time: 0.031667
0.383414 16.863363 -1.810240 -1.405944 0.763194 0.967095 -18.177289 1.303070 -1.693157 -1.815242 3.054180 10.985723 -0.366589 2.701479 -0.474369 -0.047088 -1.122425 -2.974242 23.747040 -0.076487 2.155905 0.812292 -3.388662 7.493997 1.339177 -3.324906 -5.211290 -0.108693 -0.793553 1.577540 1.843743 0.627209 -8.626092 -0.969603 0.483238 3.350517 2.555193 -2.068304 16.638376 -0.036251 -1.004270 8.559246 -18.833452 0.094899 -0.591588 9.060168 -14.913412 -8.812457 1.089274 -3.328386 -1.324907 -7.196954 -0.075693 -0.039093 9.707593 3.307738 -5.094894 -13.626945 19.363735 -11.323972 -0.138600 1.943421 -0.785500 7.005134 -0.072599 -0.078968 
0.383318 16.859610 -1.817252 -1.379972 0.747692 0.969901 -18.476687 3.213532 -0.714186 -1.692930 1.856125 8.474042 -0.438669 1.951689 -0.310432 -0.104105 -1.136913 -2.932695 24.161541 -1.267426 3.153749 0.491764 -2.740382 5.329165 1.409487 -2.002822 -5.259274 -0.171172 -0.904785 1.642970 1.986517 0.864126 -9.678487 -0.789746 0.121830 5.053028 2.090520 -2.460303 17.960873 -0.218797 -1.203901 8.916781 -17.804865 -0.061075 1.192732 8.347666 -13.927328 -10.064590 1.326377 -3.500170 -1.154508 -7.247431 -0.132930 -0.087376 10.592116 3.453525 -0.731325 -13.787180 18.826019 -12.933531 -0.108245 2.437643 0.281942 6.950771 -0.125482 -0.152837 
0.359751 16.856756 -1.922252 -1.278687 2.231196 1.264987 -19.270641 3.870443 -0.299547 -1.607789 1.333280 7.288435 -0.626963 1.277294 -0.061330 -0.136817 -1.084862 -2.682610 24.894867 -1.909049 4.347533 0.423108 -2.281508 3.389455 1.444366 -0.919465 -5.361431 -0.195862 -0.767060 0.957241 2.279966 0.878100 -10.407213 -0.745266 0.161719 6.360184 1.693175 -3.021769 18.821430 -0.402968 -1.519479 9.064268 -17.358220 -0.266621 2.537015 8.090031 -13.578931 -11.160187 1.465401 -3.831827 -1.008908 -7.286646 -0.165681 -0.116164 11.281476 3.169030 0.693280 -13.521736 18.191511 -14.343828 -0.230495 2.682373 0.532032 6.909863 -0.155635 -0.185650 
0.356616 16.846096 -1.948889 -0.875224 1.924792 0.723241 -19.985895 3.821729 -0.392797 -1.539155 1.115450 6.653810 -0.721449 0.449620 -0.146466 -0.181934 -1.155497 -2.719100 25.342658 -2.566891 4.475418 0.148496 -2.126513 2.538484 1.682247 -0.418733 -5.246877 -0.238878 -0.603665 0.107928 2.473813 0.737694 -10.392536 -0.895187 0.155998 7.344410 1.444414 -3.214465 19.448172 -0.621633 -1.849598 9.035805 -17.412880 0.080764 3.191455 8.159992 -13.473914 -12.593513 1.742338 -4.394792 -0.738321 -7.346915 -0.220194 -0.170255 12.345280 2.679942 1.793530 -13.394254 17.299077 -15.661213 -0.525055 2.868180 -0.104370 6.846735 -0.203981 -0.240516 
0.352688 16.855104 -1.909324 -1.206381 1.764283 0.913657 -20.922568 4.060333 -0.416402 -1.478319 0.749093 6.004138 -0.618841 0.242470 -0.563598 -0.240919 -1.054590 -2.352795 25.579580 -2.891641 4.355782 0.078057 -2.300343 2.584816 1.810031 -0.399527 -5.275518 -0.289382 -0.655191 0.134882 2.455981 0.458225 -10.645755 -0.988415 0.276209 8.078298 1.577485 -3.708339 19.421302 -0.510949 -2.190563 8.583894 -17.127081 -0.092822 3.313184 8.270144 -13.160312 -13.799506 2.136666 -4.634595 -0.396199 -7.401998 -0.278385 -0.236184 12.705122 2.062384 1.641504 -12.929467 16.618285 -17.014512 -0.666713 3.215201 -0.388385 6.776929 -0.255911 -0.300268 
0.353326 16.855556 -1.907733 -1.240121 1.724975 0.923689 -21.470287 3.933986 -0.549753 -1.555504 0.568674 5.299499 -0.594496 0.529156 -0.820281 -0.321618 -0.945575 -1.877943 25.621059 -3.161676 4.100742 -0.148501 -2.522171 2.637488 2.002991 -0.768362 -4.982170 -0.366699 -0.914044 0.616605 2.553864 0.227957 -10.403262 -1.061028 0.174123 8.660776 1.602503 -4.390524 19.398718 -0.549479 -2.660294 8.211917 -16.992123 -0.163582 3.942967 8.266292 -13.106698 -15.168604 2.315352 -5.162539 -0.589365 -7.472134 -0.361125 -0.324974 13.054404 1.396450 1.952736 -12.560941 15.697755 -18.381100 -0.725600 3.508125 -0.631992 6.675067 -0.329198 -0.386385 
0.353497 16.856457 -1.906577 -1.280150 1.729442 0.936999 -22.019044 3.977815 -0.594934 -1.881454 -0.083816 4.346404 -0.915379 0.909869 -1.023515 -0.392792 -0.830315 -1.341008 25.747405 -3.670441 4.073416 -0.298389 -2.782632 2.669301 1.767722 -0.969335 -4.884053 -0.440853 -1.250546 1.110907 2.352356 -0.188734 -10.214577 -1.230569 0.118193 9.246927 1.453990 -5.113188 19.022778 -0.685324 -3.143695 7.823191 -16.766212 0.032136 3.831415 7.954253 -12.804096 -16.659733 2.545773 -5.703521 -0.766767 -7.537482 -0.436879 -0.398208 12.904765 0.899445 1.973714 -12.094356 14.534761 -19.679680 -0.932722 3.688824 -0.744849 6.581992 -0.395405 -0.459108 
0.354524 16.854355 -1.908769 -1.262170 1.675628 0.897137 -21.891753 3.499313 -0.930052 -1.651823 -0.481105 3.402545 -0.853816 1.027911 -0.944066 -0.401894 -0.809349 -1.221784 25.757652 -3.368402 3.560304 -0.439699 -2.805659 2.912934 1.335159 -1.273647 -4.588898 -0.440672 -1.117378 0.854187 2.260984 -0.211667 -9.618508 -1.341538 -0.123790 9.592459 1.640367 -5.240903 19.193475 -0.445641 -3.221304 7.839458 -17.519141 -0.710302 4.258303 8.080134 -12.893298 -17.238373 2.519092 -5.853736 -0.818521 -7.537198 -0.446762 -0.410598 13.378059 1.079769 1.975676 -11.885897 14.050992 -20.176727 -0.895926 3.862806 -0.954711 6.569544 -0.403027 -0.465040 
0.355215 16.853754 -1.910480 -1.258266 1.650171 0.888190 -21.400464 3.072879 -1.329342 -1.254670 -0.625380 2.777061 -0.713044 1.278268 -1.054315 -0.419613 -0.855745 -1.302921 25.676767 -2.732630 2.836621 -1.004597 -2.963574 3.017683 1.316429 -1.488344 -4.440411 -0.448209 -0.906061 0.298984 2.328600 -0.324563 -8.638764 -1.565147 -0.503098 10.118290 1.841078 -5.079176 18.891549 -0.251731 -3.224216 7.662024 -17.737827 -1.167885 4.478555 8.069436 -12.721865 -17.677435 2.532008 -6.046570 -0.723195 -7.546044 -0.466276 -0.434603 13.869143 1.259069 2.190271 -11.537833 13.644895 -20.557275 -0.779644 4.139842 -0.641552 6.540217 -0.419482 -0.484804 
0.354847 16.854204 -1.912898 -1.277922 1.673580 0.855423 -21.233848 3.053905 -1.901521 -1.081048 -0.621288 2.666521 -0.420139 0.887917 -0.801771 -0.406595 -0.877360 -1.358938 25.633752 -2.323518 2.174872 -1.276965 -3.061354 3.662894 0.975327 -1.049301 -4.302970 -0.431701 -0.808915 0.126376 2.137875 -0.373512 -7.326094 -1.522459 -0.483369 10.414714 2.261803 -5.303767 18.497673 -0.121115 -3.334117 7.566957 -18.343883 -1.719981 4.651930 8.041401 -12.616267 -18.001404 2.497962 -6.264280 -0.525690 -7.533390 -0.451725 -0.421141 14.292454 2.008507 2.382281 -11.100852 13.274436 -20.958690 -0.711861 4.422189 -0.413472 6.556872 -0.406125 -0.467776 
0.355467 16.859909 -1.895105 -1.494062 1.709578 1.028775 -21.235982 3.075216 -2.460853 -1.101501 -0.527917 2.492217 -0.206823 0.616618 -0.987738 -0.392065 -0.890071 -1.368398 25.554538 -2.220013 1.359692 -1.354040 -3.091362 3.823900 0.793554 -1.012784 -4.460021 -0.415865 -0.738385 -0.081214 2.089353 -0.493721 -7.533748 -1.628725 -0.628972 10.659629 2.453226 -5.565297 18.178847 -0.178858 -3.495689 7.204210 -18.524290 -2.460912 4.426234 8.022323 -12.684321 -18.384819 2.488951 -6.369933 -0.675244 -7.523583 -0.436419 -0.404015 14.659604 3.079989 2.307553 -10.951526 12.922123 -21.168011 -0.621082 4.477392 -0.540143 6.577760 -0.391656 -0.448950 
0.355698 16.858559 -1.896486 -1.490068 1.658553 0.979278 -21.038507 3.017696 -2.280323 -1.201527 -0.671183 2.329970 -0.137014 0.293937 -1.086285 -0.409503 -0.741499 -0.922339 25.262135 -2.073274 1.446477 -1.372193 -3.063523 3.603587 0.490130 -0.732715 -4.581578 -0.431498 -0.902637 0.265470 1.834679 -0.639540 -7.563152 -1.720575 -0.629941 10.695904 2.736680 -5.737119 17.933290 -0.387242 -3.543059 7.024069 -19.066883 -2.558085 3.640373 7.866286 -12.555204 -18.570451 2.459238 -6.513004 -0.725400 -7.536701 -0.450796 -0.414366 14.552620 3.234751 2.084155 -10.923368 12.659333 -21.408947 -0.637602 4.441928 -0.524023 6.563826 -0.404139 -0.463588 
